# xmcd
#
# Track frame offsets: 
#        150
#        23100
#        58650
#        85630
#        115000
#        145320
#        166262
#        207605
#        237787
#        258307
#        283637
#        315111
#
# Disc length: 4505 seconds
#
# Revision: 1
# Processed by: cddbd v1.5.2PL0 Copyright (c) Steve Scherf et al.
# Submitted via: ExactAudioCopy v1.0b3
#
DISCID=9b11970c
DTITLE=The Allman Brothers Band - Southbound - The Best Of The Allman 
DTITLE=Brothers Band
DYEAR=2004
DGENRE=Rock
TTITLE0=Good Clean Fun
TTITLE1=Southbound (Live)
TTITLE2=No One To Run With
TTITLE3=Black Hearted Woman (Live)
TTITLE4=Gambler's Roll
TTITLE5=End Of The Line
TTITLE6=Back Where It All Begins
TTITLE7=Soulshine (Live)
TTITLE8=Please Call Home (Live)
TTITLE9=Temptation Is A Gun
TTITLE10=Get On With Your Life
TTITLE11=Seven Turns
EXTD=
EXTT0=
EXTT1=
EXTT2=
EXTT3=
EXTT4=
EXTT5=
EXTT6=
EXTT7=
EXTT8=
EXTT9=
EXTT10=
EXTT11=
PLAYORDER=
